<?xml version="1.0" encoding="utf-8"?>
<!-- Generator: Adobe Illustrator 23.0.1, SVG Export Plug-In . SVG Version: 6.00 Build 0)  -->
<svg version="1.1" id="Bold" xmlns="http://www.w3.org/2000/svg" xmlns:xlink="http://www.w3.org/1999/xlink" x="0px" y="0px"
	 viewBox="0 0 512 512" style="enable-background:new 0 0 512 512;" xml:space="preserve">
<style type="text/css">
	.st0{clip-path:url(#SVGID_2_);fill:#DA2015;}
	.st1{clip-path:url(#SVGID_2_);fill:none;stroke:#DA2015;}
</style>
<g>
	<defs>
		<rect id="SVGID_1_" x="60" y="51.9" width="408" height="408.2"/>
	</defs>
	<clipPath id="SVGID_2_">
		<use xlink:href="#SVGID_1_"  style="overflow:visible;"/>
	</clipPath>
	<path class="st0" d="M61.2,325.5c0-73.7,59.1-133.2,132.5-133.3c74.3-0.1,134.2,59.3,134.2,133.1c0,73.8-60.4,134-134,133.6
		C120.4,458.5,61.2,399,61.2,325.5"/>
	<path class="st1" d="M61.2,325.5c0-73.7,59.1-133.2,132.5-133.3c74.3-0.1,134.2,59.3,134.2,133.1c0,73.8-60.4,134-134,133.6
		C120.4,458.5,61.2,399,61.2,325.5z"/>
	<path class="st0" d="M195.6,111.1V53.1c70.9,1.8,132.6,25.3,184.2,73.4c56.9,53.1,84.6,119.5,87.1,197.9h-57.6
		c-1.9-57.6-21.7-108.3-62.7-149.6C305.4,133.5,255.1,112.8,195.6,111.1"/>
	<path class="st1" d="M195.6,111.1V53.1c70.9,1.8,132.6,25.3,184.2,73.4c56.9,53.1,84.6,119.5,87.1,197.9h-57.6
		c-1.9-57.6-21.7-108.3-62.7-149.6C305.4,133.5,255.1,112.8,195.6,111.1z"/>
</g>
</svg>
